PathFileType  4	(X/Y/Z) C:\Users\antoi\Documents\MyRepositories\mobilecap\ResultsAnalysis
DataRate	CameraRate	NumFrames	NumMarkers	Units	OrigDataRate	OrigDataStartFrame	OrigNumFrames
100.0	100.0	5	51	mm	100.0	17	131
Frame#	Time	r_knee			r_shank_antsup			r_ankle			r_calc			r_5meta			r_toe			L_knee			L_shank_antsup			L_ankle			L_calc			L_5meta			L_toe			r_sh2			r_sh3			r_sh4			L_sh2			L_sh3			r_thigh1			r_thigh2			r_thigh3			r_thigh4			r_thigh5			L_thigh1			L_thigh2			L_thigh3			L_thigh4			r.ASIS			r.PSIS			L.ASIS			L.PSIS			C7			R_Shoulder			L_Shoulder			R_Sternum			L_Sternum			R_humerus			R_elbow_med			R_elbow_lat			R_forearm			R_wrist_radius			R_wrist_ulna			L_humerus			L_elbow_med			L_elbow_lat			L_forearm			L_wrist_radius			L_wrist_ulna			R_HJC			L_HJC			R_HJC_reg			L_HJC_reg			
		X1	Y1	Z1	X2	Y2	Z2	X3	Y3	Z3	X4	Y4	Z4	X5	Y5	Z5	X6	Y6	Z6	X7	Y7	Z7	X8	Y8	Z8	X9	Y9	Z9	X10	Y10	Z10	X11	Y11	Z11	X12	Y12	Z12	X13	Y13	Z13	X14	Y14	Z14	X15	Y15	Z15	X16	Y16	Z16	X17	Y17	Z17	X18	Y18	Z18	X19	Y19	Z19	X20	Y20	Z20	X21	Y21	Z21	X22	Y22	Z22	X23	Y23	Z23	X24	Y24	Z24	X25	Y25	Z25	X26	Y26	Z26	X27	Y27	Z27	X28	Y28	Z28	X29	Y29	Z29	X30	Y30	Z30	X31	Y31	Z31	X32	Y32	Z32	X33	Y33	Z33	X34	Y34	Z34	X35	Y35	Z35	X36	Y36	Z36	X37	Y37	Z37	X38	Y38	Z38	X39	Y39	Z39	X40	Y40	Z40	X41	Y41	Z41	X42	Y42	Z42	X43	Y43	Z43	X44	Y44	Z44	X45	Y45	Z45	X46	Y46	Z46	X47	Y47	Z47	X48	Y48	Z48	X49	Y49	Z49	X50	Y50	Z50	X51	Y51	Z51	

17	0.16000000	162.92300	496.09243	-112.37805	209.40535	403.16915	-129.40226	143.80446	89.29075	-154.39420	84.47781	58.48479	-207.03099	262.47067	45.24270	-113.93270	297.50529	74.23268	-169.48753	54.89478	458.31004	-388.57789	22.33029	367.97767	-375.02528	-289.39250	245.74526	-377.60888	-350.19267	300.05169	-327.23096	-320.17167	122.03585	-405.27599	-274.84222	90.66717	-352.58633	208.49862	290.48951	-139.37902	149.29258	398.74350	-83.87616	140.92540	284.09680	-89.31767	-9.25329	441.20853	-412.95358	-115.03464	381.60124	-422.69587	131.04349	776.98122	-71.18690	169.68960	674.66417	-95.10075	130.54601	628.84426	-62.34537	30.85918	732.34969	-46.91714	74.39352	628.96828	-73.57931	110.61031	712.17062	-395.19610	138.01239	576.07175	-377.05396	8.66187	688.30988	-428.43510	32.26783	559.43832	-400.49804	110.62259	954.75182	-112.40370	-99.69204	969.90225	-195.62065	105.97984	933.37377	-366.14355	-94.77717	963.10732	-290.91409	-75.09035	1430.16603	-231.76572	-18.28422	1399.36762	-65.08680	10.20025	1405.66002	-380.55964	53.55515	1361.75786	-201.25238	54.35524	1364.56390	-247.29506	7.84177	1267.76622	-8.86735	-77.90566	1071.48427	-67.11154	-83.94824	1082.85391	1.02830	-43.99748	1016.25368	36.33277	-7.85245	846.04406	22.86360	-50.37900	853.03806	53.12210	53.12180	1273.44685	-442.54325	13.69808	1066.32622	-398.71419	36.07931	1080.55165	-474.16970	105.18625	1043.62740	-475.79832	211.12191	905.73964	-435.15006	185.14295	893.92629	-476.80013	30.10762	861.64890	-131.26200	30.99888	846.82110	-320.24023	35.93682	869.42258	-145.96556	44.56728	857.48274	-313.43322	
18	0.17000000	168.13302	495.91641	-111.87007	213.21133	402.43819	-128.69753	144.03264	89.42491	-154.59856	84.47017	58.56850	-207.03926	262.50096	45.23395	-113.84900	297.61275	74.04546	-169.47907	82.50042	462.39043	-386.81282	51.22079	371.64361	-372.83150	-259.90586	248.36474	-376.55963	-323.46992	300.36239	-326.77186	-285.32665	124.44372	-405.52502	-240.01839	94.35146	-352.15471	210.82855	289.81215	-138.90277	152.68479	398.77842	-83.65275	142.76849	284.23085	-89.34173	19.44425	444.85973	-410.94499	-86.05633	384.93749	-420.93440	140.89705	777.41532	-70.39290	178.11699	674.39614	-94.61293	137.98381	629.07353	-61.79033	39.97287	734.18017	-46.29619	81.76274	630.03681	-73.15840	129.15236	717.12882	-393.19820	160.74952	581.89498	-374.86174	28.22059	689.97833	-427.01857	55.79561	561.99957	-398.99301	122.83596	956.11907	-111.94595	-87.43438	972.55137	-193.48469	117.64292	936.33640	-365.88161	-82.96397	965.79686	-288.63454	-62.06043	1432.97249	-230.51928	-4.09467	1402.05992	-64.08847	22.26183	1408.34810	-379.99499	66.53427	1364.32290	-200.75032	67.14691	1367.09995	-246.78301	23.58752	1270.46173	-8.26242	-62.11346	1073.48751	-64.16241	-66.80909	1084.94600	4.04692	-25.06218	1019.00881	38.63026	13.34228	849.30531	25.08077	-28.73089	855.68918	55.86225	63.88829	1275.39860	-442.20662	22.40524	1068.85349	-396.99778	44.27885	1082.51643	-472.65894	111.68759	1043.07639	-475.52547	212.40596	900.50895	-437.06363	185.55456	890.13659	-478.53967	42.47910	863.36444	-130.67903	42.29754	849.65984	-319.72967	47.83107	871.93092	-145.32512	55.69824	860.04427	-312.87507	
19	0.18000000	173.03128	495.78307	-111.37008	216.80964	401.80799	-128.05170	144.29094	89.57992	-154.74723	84.46206	58.67892	-207.04258	262.53887	45.18549	-113.75417	297.72935	73.85628	-169.44503	109.71056	467.32170	-384.87807	80.12926	375.98435	-370.54183	-229.73418	249.47209	-375.39021	-296.33427	298.85738	-326.22448	-249.23244	125.30712	-405.46297	-203.65183	96.85001	-351.47668	213.04384	289.26227	-138.48395	155.98614	398.83450	-83.30590	144.68433	284.40541	-89.21218	47.62734	448.99491	-408.94183	-57.16658	388.11581	-419.13968	150.48026	777.85300	-69.74637	186.22341	674.17715	-94.17568	145.19649	629.38788	-61.19118	48.84116	736.06269	-45.66697	88.87548	631.15618	-72.66071	147.43352	722.61309	-391.16910	183.00601	588.33035	-372.56834	47.62621	692.29532	-425.68204	78.96413	565.30788	-397.49843	134.88149	957.41542	-111.62942	-75.28136	975.29476	-191.16997	129.23103	939.55345	-365.68744	-71.32616	968.88939	-286.26567	-49.13051	1435.90653	-229.37637	9.92587	1404.81758	-63.18218	34.22054	1411.10787	-379.52084	79.37884	1366.96567	-200.36626	79.72090	1369.68778	-246.41225	39.10454	1273.25704	-7.74338	-46.31680	1075.50039	-61.15700	-49.62995	1087.10110	7.08807	-5.93966	1021.89459	40.83029	34.75979	852.77912	27.15739	-6.80881	858.52182	58.53180	74.56317	1277.46145	-441.98573	31.02127	1071.46389	-395.43450	52.38975	1084.65344	-471.32746	118.02322	1042.77786	-475.36627	213.13281	895.64897	-439.11750	185.43155	886.78477	-480.42155	54.69115	865.06390	-130.24432	53.35429	852.78225	-319.37993	59.70515	874.22874	-145.00401	66.67695	862.94481	-312.61378	
20	0.19000000	177.62761	495.66574	-110.88653	220.24718	401.25847	-127.50854	144.56273	89.74207	-154.85005	84.45418	58.79261	-207.04438	262.58078	45.10600	-113.65387	297.85395	73.65910	-169.39957	136.49709	472.91737	-382.79025	109.01640	380.87044	-368.14696	-198.99754	249.09814	-374.18805	-268.59098	295.64542	-325.60185	-212.37109	124.73924	-405.06787	-166.25592	98.17025	-350.58877	215.20157	288.81334	-138.16227	159.25932	398.88291	-82.85964	146.73921	284.58764	-88.95110	75.27288	453.44037	-406.97422	-28.34772	390.93396	-417.42230	159.81502	778.23703	-69.18372	194.01223	673.94650	-93.73583	152.18054	629.74556	-60.56771	57.50442	737.96359	-45.04499	95.77496	632.31469	-72.11383	165.39736	728.50469	-389.15842	204.78038	595.26537	-370.21076	66.80398	695.12405	-424.45615	101.75103	569.21566	-396.06743	146.75835	958.72733	-111.34887	-63.22848	978.12787	-188.84326	140.78918	942.98579	-365.41275	-59.80041	972.30444	-283.97072	-36.31453	1438.91527	-228.32702	23.75134	1407.63299	-62.36972	46.10884	1413.90959	-379.07841	92.10035	1369.65477	-200.06972	92.09938	1372.29510	-246.14687	54.34928	1276.17813	-7.25346	-30.49274	1077.54481	-58.14199	-32.42798	1089.33493	10.11735	13.30158	1024.90750	42.92667	56.35115	856.47327	29.06977	15.34951	861.55513	61.10478	85.17096	1279.61719	-441.81739	39.54138	1074.18103	-394.01130	60.38733	1086.96165	-470.17649	124.19556	1042.76675	-475.31775	213.35507	891.24205	-441.28929	184.84886	883.95570	-482.43791	66.70509	866.81160	-129.90130	64.29078	856.13914	-319.12387	71.53652	876.41382	-144.86784	77.58317	866.15183	-312.48271	
21	0.20000000	181.93888	495.55206	-110.42486	223.53454	400.77522	-127.09034	144.82559	89.90128	-154.91897	84.43925	58.88664	-207.04272	262.62135	45.00937	-113.55323	297.97457	73.45756	-169.35161	162.79556	478.97639	-380.58868	137.76170	386.15954	-365.66088	-167.77234	247.32816	-373.01669	-240.15374	290.80238	-324.94452	-174.92304	122.89313	-404.35249	-128.07289	98.42862	-349.50353	217.30997	288.43995	-137.95077	162.50803	398.91710	-82.35665	148.91765	284.76516	-88.59960	102.32082	458.02312	-405.06223	0.34868	393.23227	-415.84134	168.92987	778.51904	-68.65081	201.48652	673.65333	-93.25142	158.92436	630.10632	-59.94526	65.99329	739.85157	-44.45356	102.50713	633.48036	-71.56011	182.98371	734.67258	-387.21810	226.07271	602.58319	-367.83910	85.67536	698.31653	-423.35971	124.13760	573.57112	-394.73443	158.46303	960.12092	-111.00302	-51.28572	981.03647	-186.66592	152.35336	946.58058	-364.93960	-48.33065	975.92367	-281.88965	-23.62397	1441.92928	-227.35611	37.35858	1410.48636	-61.65254	57.94435	1416.71987	-378.62390	104.70185	1372.34688	-199.82951	104.32558	1374.88626	-245.94400	69.30561	1279.23501	-6.74537	-14.62335	1079.63345	-55.16079	-15.23023	1091.65558	13.10216	32.58475	1028.03694	44.92030	78.06111	860.38234	30.80941	37.69058	864.79681	63.56007	95.72442	1281.83386	-441.64480	47.94243	1077.01888	-392.72063	68.24438	1089.42615	-469.20066	130.19260	1043.04909	-475.38066	213.13816	887.35059	-443.55818	183.90736	881.71752	-484.58127	78.49049	868.65176	-129.59602	75.22009	859.66083	-318.89969	83.27704	878.59905	-144.77730	88.48578	869.59487	-312.32200	
